<?xml version="1.0" standalone="no"?>
<!DOCTYPE svg PUBLIC "-//W3C//DTD SVG 20010904//EN"
 "http://www.w3.org/TR/2001/REC-SVG-20010904/DTD/svg10.dtd">
<svg version="1.0" xmlns="http://www.w3.org/2000/svg"
 width="500.000000pt" height="500.000000pt" viewBox="0 0 500.000000 500.000000"
 preserveAspectRatio="xMidYMid meet">
<metadata>
Created by potrace 1.11, written by Peter Selinger 2001-2013
</metadata>
<g transform="translate(0.000000,500.000000) scale(0.100000,-0.100000)"
fill="#000000" stroke="none">
<path d="M0 2500 l0 -2500 2500 0 2500 0 0 2500 0 2500 -2500 0 -2500 0 0
-2500z m1302 723 c324 -324 589 -597 593 -610 3 -13 -1 -36 -9 -51 -18 -33
-1142 -1155 -1173 -1171 -38 -19 -68 -3 -147 79 -64 66 -76 83 -76 111 0 32
37 71 490 524 l490 490 -490 490 c-578 579 -538 515 -406 643 65 64 90 82 112
82 24 0 114 -85 616 -587z m3156 -1729 c36 -10 52 -54 52 -142 0 -107 -12
-139 -58 -152 -25 -8 -407 -10 -1213 -8 -1141 3 -1178 4 -1198 22 -19 17 -21
30 -21 130 0 61 4 116 8 122 22 33 41 33 1227 34 649 0 1190 -3 1203 -6z"/>
</g>
</svg>
